{
	"asset":{
		"generator":"Khronos glTF Blender I/O v4.2.70",
		"version":"2.0"
	},
	"extensionsUsed":[
		"KHR_materials_specular",
		"KHR_materials_ior"
	],
	"scene":0,
	"scenes":[
		{
			"name":"Scene",
			"nodes":[
				0,
				1
			]
		}
	],
	"nodes":[
		{
			"mesh":0,
			"name":"Tree main",
			"scale":[
				0.4172574281692505,
				0.4172574281692505,
				0.4172574281692505
			],
			"translation":[
				0,
				38.15312957763672,
				0
			]
		},
		{
			"mesh":1,
			"name":"Tree up",
			"scale":[
				0.08194863051176071,
				0.08194863051176071,
				0.08194863051176071
			],
			"translation":[
				-5.914969444274902,
				116.30081939697266,
				4.802690505981445
			]
		}
	],
	"materials":[
		{
			"doubleSided":true,
			"name":"Tree main and grass robot",
			"pbrMetallicRoughness":{
				"baseColorTexture":{
					"index":0
				},
				"metallicFactor":0,
				"roughnessFactor":0.5
			}
		},
		{
			"alphaMode":"BLEND",
			"doubleSided":true,
			"extensions":{
				"KHR_materials_specular":{
					"specularFactor":0.2454545497894287
				},
				"KHR_materials_ior":{
					"ior":1.4500000476837158
				}
			},
			"name":"Tree up",
			"pbrMetallicRoughness":{
				"baseColorTexture":{
					"index":1
				},
				"metallicFactor":0
			}
		}
	],
	"meshes":[
		{
			"name":"360-_lambert1",
			"primitives":[
				{
					"attributes":{
						"POSITION":0,
						"NORMAL":1,
						"TEXCOORD_0":2
					},
					"indices":3,
					"material":0
				}
			]
		},
		{
			"name":"4-_UniqueID_6.002",
			"primitives":[
				{
					"attributes":{
						"POSITION":4,
						"NORMAL":5,
						"TEXCOORD_0":6
					},
					"indices":7,
					"material":1
				}
			]
		}
	],
	"textures":[
		{
			"sampler":0,
			"source":0
		},
		{
			"sampler":0,
			"source":1
		}
	],
	"images":[
		{
			"mimeType":"image/png",
			"name":"robot_Tree_main_and_grass_robot_diffuse",
			"uri":"tree_textures/robot_Tree_main_and_grass_robot_diffuse.png"
		},
		{
			"mimeType":"image/png",
			"name":"Tree up texture-Tree_alfa",
			"uri":"tree_textures/Tree%20up%20texture-Tree_alfa.png"
		}
	],
	"accessors":[
		{
			"bufferView":0,
			"componentType":5126,
			"count":896,
			"max":[
				99.25251770019531,
				181.08056640625,
				75.73817443847656
			],
			"min":[
				-97.31427001953125,
				-0.7737455368041992,
				-101.33018493652344
			],
			"type":"VEC3"
		},
		{
			"bufferView":1,
			"componentType":5126,
			"count":896,
			"type":"VEC3"
		},
		{
			"bufferView":2,
			"componentType":5126,
			"count":896,
			"type":"VEC2"
		},
		{
			"bufferView":3,
			"componentType":5123,
			"count":3351,
			"type":"SCALAR"
		},
		{
			"bufferView":4,
			"componentType":5126,
			"count":1657,
			"max":[
				756.80126953125,
				427.6807861328125,
				563.2840576171875
			],
			"min":[
				-744.9842529296875,
				-461.73394775390625,
				-590.014892578125
			],
			"type":"VEC3"
		},
		{
			"bufferView":5,
			"componentType":5126,
			"count":1657,
			"type":"VEC3"
		},
		{
			"bufferView":6,
			"componentType":5126,
			"count":1657,
			"type":"VEC2"
		},
		{
			"bufferView":7,
			"componentType":5123,
			"count":4200,
			"type":"SCALAR"
		}
	],
	"bufferViews":[
		{
			"buffer":0,
			"byteLength":10752,
			"byteOffset":0,
			"target":34962
		},
		{
			"buffer":0,
			"byteLength":10752,
			"byteOffset":10752,
			"target":34962
		},
		{
			"buffer":0,
			"byteLength":7168,
			"byteOffset":21504,
			"target":34962
		},
		{
			"buffer":0,
			"byteLength":6702,
			"byteOffset":28672,
			"target":34963
		},
		{
			"buffer":0,
			"byteLength":19884,
			"byteOffset":35376,
			"target":34962
		},
		{
			"buffer":0,
			"byteLength":19884,
			"byteOffset":55260,
			"target":34962
		},
		{
			"buffer":0,
			"byteLength":13256,
			"byteOffset":75144,
			"target":34962
		},
		{
			"buffer":0,
			"byteLength":8400,
			"byteOffset":88400,
			"target":34963
		}
	],
	"samplers":[
		{
			"magFilter":9729,
			"minFilter":9987
		}
	],
	"buffers":[
		{
			"byteLength":96800,
			"uri":"tree.bin"
		}
	]
}
